<svg width="1118" height="55" xmlns="http://www.w3.org/2000/svg" xmlns:xlink="http://www.w3.org/1999/xlink" overflow="hidden"><defs><clipPath id="clip0"><path d="M76 162 1194 162 1194 217 76 217Z" fill-rule="evenodd" clip-rule="evenodd"/></clipPath></defs><g clip-path="url(#clip0)" transform="translate(-76 -162)"><rect x="123.5" y="167.5" width="141" height="41" stroke="#AFABAB" stroke-miterlimit="8" fill="none"/><text fill="#767171" font-family="Times New Roman,Times New Roman_MSFontService,sans-serif" font-weight="400" font-size="16" transform="translate(137.275 193)">Spracherkennun<tspan x="104.167" y="0">g</tspan></text><rect x="309.5" y="167.5" width="140" height="41" stroke="#1F4E79" stroke-miterlimit="8" fill="none"/><text font-family="Times New Roman,Times New Roman_MSFontService,sans-serif" font-weight="400" font-size="16" transform="translate(333.245 193)">Tokenisierung</text><path d="M264.5 187 303.116 187 303.116 188 264.5 188ZM301.783 183.5 309.783 187.5 301.783 191.5Z" fill="#1F4E79"/><path d="M449.5 187 488.116 187 488.116 188 449.5 188ZM486.783 183.5 494.783 187.5 486.783 191.5Z" fill="#1F4E79"/><rect x="1052.5" y="166.5" width="141" height="42" stroke="#AFABAB" stroke-miterlimit="8" fill="none"/><text fill="#767171" font-family="Times New Roman,Times New Roman_MSFontService,sans-serif" font-weight="400" font-size="16" transform="translate(1084.06 183)">Dialog<tspan x="43.6667" y="0">-</tspan><tspan x="53" y="0">und </tspan><tspan x="-10.4133" y="20">Diskursanalyse</tspan></text><rect x="867.5" y="166.5" width="140" height="42" stroke="#1F4E79" stroke-miterlimit="8" fill="none"/><text font-family="Times New Roman,Times New Roman_MSFontService,sans-serif" font-weight="400" font-size="16" transform="translate(896.322 183)">Semantische <tspan x="14.3334" y="20">Analyse</tspan></text><rect x="681.5" y="167.5" width="140" height="41" stroke="#1F4E79" stroke-miterlimit="8" fill="none"/><text font-family="Times New Roman,Times New Roman_MSFontService,sans-serif" font-weight="400" font-size="16" transform="translate(709.943 183)">Syntaktische <tspan x="14.7533" y="20">Analyse</tspan></text><rect x="495.5" y="167.5" width="140" height="41" stroke="#1F4E79" stroke-miterlimit="8" fill="none"/><text font-family="Times New Roman,Times New Roman_MSFontService,sans-serif" font-weight="400" font-size="16" transform="translate(512.481 183)">Morphologische <tspan x="26.2534" y="20">Analyse</tspan></text><path d="M635.5 187 674.418 187 674.418 188 635.5 188ZM673.085 183.5 681.085 187.5 673.085 191.5Z" fill="#1F4E79"/><path d="M0.006622-0.499956 38.9254 0.01553 38.9122 1.01544-0.006622 0.499956ZM37.6386-3.50182 45.5849 0.603779 37.5326 4.49748Z" fill="#1F4E79" transform="matrix(1 0 0 -1 821.5 188.104)"/><path d="M1007.5 187 1046.12 187 1046.12 188 1007.5 188ZM1044.78 183.5 1052.78 187.5 1044.78 191.5Z" fill="#AFABAB"/><path d="M77.5001 187 117.022 187 117.022 188 77.5001 188ZM115.689 183.5 123.689 187.5 115.689 191.5Z" fill="#AFABAB"/></g></svg>