<svg width="830" height="175" xmlns="http://www.w3.org/2000/svg" xmlns:xlink="http://www.w3.org/1999/xlink" overflow="hidden"><defs><clipPath id="clip0"><path d="M215 158 1045 158 1045 333 215 333Z" fill-rule="evenodd" clip-rule="evenodd"/></clipPath><linearGradient x1="262.5" y1="207.5" x2="1018.5" y2="207.5" gradientUnits="userSpaceOnUse" spreadMethod="reflect" id="fill1"><stop offset="0" stop-color="#FD2F2F"/><stop offset="0.5" stop-color="#FFFF00"/><stop offset="1" stop-color="#92D050"/></linearGradient></defs><g clip-path="url(#clip0)" transform="translate(-215 -158)"><rect x="262.5" y="160.5" width="756" height="94" stroke="#000000" stroke-width="3" stroke-miterlimit="8" fill="url(#fill1)"/><path d="M640.5 160.5 640.5 254.988" stroke="#000000" stroke-miterlimit="8" fill="none" fill-rule="evenodd"/><path d="M639.887 284.461C638.697 284.461 637.701 284.815 636.898 285.522 636.096 286.229 635.449 287.247 634.957 288.576 634.466 289.904 634.116 291.521 633.909 293.428 633.702 295.334 633.599 297.487 633.599 299.885 633.599 305.509 634.121 309.637 635.164 312.268 636.208 314.899 637.826 316.214 640.017 316.214 642.104 316.214 643.653 314.976 644.662 312.501 645.671 310.025 646.176 306.19 646.176 300.997 646.176 297.029 645.917 293.816 645.4 291.358 644.882 288.899 644.162 287.135 643.239 286.065 642.316 284.996 641.199 284.461 639.887 284.461ZM640.017 282.261C643.795 282.261 646.607 283.719 648.453 286.635 650.299 289.55 651.222 293.958 651.222 299.859 651.222 305.966 650.235 310.586 648.259 313.717 646.284 316.848 643.398 318.414 639.603 318.414 635.876 318.414 633.103 316.948 631.283 314.015 629.462 311.082 628.552 306.63 628.552 300.661 628.552 297.487 628.833 294.743 629.393 292.432 629.954 290.12 630.739 288.209 631.748 286.699 632.758 285.19 633.97 284.073 635.384 283.348 636.799 282.623 638.343 282.261 640.017 282.261Z" fill-rule="evenodd"/><text fill="#000000" fill-opacity="0" font-family="Arial,Arial_MSFontService,sans-serif" font-size="36.1528" x="628.552" y="313.895">0</text><path d="M1012.03 292.82 1013.35 294.579C1010.72 296.719 1008.67 299.138 1007.19 301.838 1005.7 304.538 1004.96 307.329 1004.96 310.21 1004.96 312.194 1005.34 313.717 1006.09 314.778 1006.84 315.839 1007.89 316.369 1009.26 316.369 1010.53 316.369 1011.62 315.852 1012.52 314.817 1013.42 313.782 1014.08 312.263 1014.51 310.262L1016.63 300.506 1020.98 300.506 1019.01 309.408C1018.79 310.426 1018.68 311.375 1018.68 312.255 1018.68 313.635 1018.98 314.666 1019.57 315.347 1020.17 316.029 1021.01 316.369 1022.09 316.369 1023.53 316.369 1024.79 315.848 1025.9 314.804 1027 313.76 1027.86 312.237 1028.47 310.236 1029.09 308.235 1029.39 305.906 1029.39 303.249 1029.39 301.679 1029.18 300.07 1028.74 298.422 1028.31 296.775 1027.71 295.408 1026.93 294.321L1028.69 292.82C1030.42 294.459 1031.72 296.262 1032.59 298.228 1033.46 300.195 1033.89 302.309 1033.89 304.569 1033.89 307.105 1033.39 309.443 1032.39 311.582 1031.39 313.721 1029.97 315.395 1028.14 316.602 1026.3 317.81 1024.2 318.414 1021.83 318.414 1018.97 318.414 1017.01 316.999 1015.96 314.17L1015.86 314.17C1015.25 315.119 1014.62 315.882 1013.95 316.46 1013.29 317.038 1012.46 317.508 1011.46 317.87 1010.46 318.233 1009.27 318.414 1007.89 318.414 1006.56 318.414 1005.34 318.116 1004.22 317.521 1003.11 316.926 1002.21 315.994 1001.52 314.726 1000.83 313.458 1000.48 311.901 1000.48 310.055 1000.48 306.915 1001.49 303.835 1003.51 300.816 1005.53 297.797 1008.37 295.131 1012.03 292.82Z" fill-rule="evenodd"/><text fill="#000000" fill-opacity="0" font-family="Arial,Arial_MSFontService,sans-serif" font-size="25.5942" x="1000.48" y="315.215">𝜔</text><path d="M226.032 301.127 257.915 301.127 257.915 304.569 226.032 304.569Z" fill-rule="evenodd"/><text fill="#000000" fill-opacity="0" font-family="Arial,Arial_MSFontService,sans-serif" font-size="3.44189" x="226.032" y="304.138">−</text><path d="M276.01 292.82 277.33 294.579C274.708 296.719 272.654 299.138 271.171 301.838 269.687 304.538 268.945 307.329 268.945 310.21 268.945 312.194 269.32 313.717 270.071 314.778 270.821 315.839 271.878 316.369 273.241 316.369 274.518 316.369 275.605 315.852 276.502 314.817 277.399 313.782 278.063 312.263 278.494 310.262L280.617 300.506 284.964 300.506 282.997 309.408C282.773 310.426 282.661 311.375 282.661 312.255 282.661 313.635 282.959 314.666 283.554 315.347 284.149 316.029 284.99 316.369 286.077 316.369 287.509 316.369 288.777 315.848 289.881 314.804 290.985 313.76 291.844 312.237 292.456 310.236 293.069 308.235 293.375 305.906 293.375 303.249 293.375 301.679 293.159 300.07 292.728 298.422 292.297 296.775 291.693 295.408 290.916 294.321L292.676 292.82C294.401 294.459 295.7 296.262 296.571 298.228 297.442 300.195 297.878 302.309 297.878 304.569 297.878 307.105 297.377 309.443 296.377 311.582 295.376 313.721 293.957 315.395 292.12 316.602 290.282 317.81 288.182 318.414 285.818 318.414 282.954 318.414 280.996 316.999 279.944 314.17L279.84 314.17C279.236 315.119 278.602 315.882 277.938 316.46 277.274 317.038 276.441 317.508 275.441 317.87 274.44 318.233 273.25 318.414 271.869 318.414 270.541 318.414 269.32 318.116 268.208 317.521 267.095 316.926 266.193 315.994 265.503 314.726 264.813 313.458 264.468 311.901 264.468 310.055 264.468 306.915 265.477 303.835 267.496 300.816 269.514 297.797 272.353 295.131 276.01 292.82Z" fill-rule="evenodd"/><text fill="#000000" fill-opacity="0" font-family="Arial,Arial_MSFontService,sans-serif" font-size="25.5942" x="264.468" y="315.215">𝜔</text></g></svg>