<svg width="992" height="544" xmlns="http://www.w3.org/2000/svg" xmlns:xlink="http://www.w3.org/1999/xlink" overflow="hidden"><defs><clipPath id="clip0"><path d="M144 87 1136 87 1136 631 144 631Z" fill-rule="evenodd" clip-rule="evenodd"/></clipPath></defs><g clip-path="url(#clip0)" transform="translate(-144 -87)"><text fill="#A6A6A6" font-family="Consolas,Consolas_MSFontService,sans-serif" font-weight="400" font-size="14" transform="translate(154.489 105)">{<tspan fill="#669900" x="15.3333" y="17">'</tspan><tspan fill="#669900" x="23" y="17">statuses</tspan><tspan fill="#669900" x="84.3333" y="17">'</tspan><tspan x="92" y="17">: [</tspan><tspan x="30.6667" y="34">{</tspan><tspan fill="#669900" x="46" y="51">'</tspan><tspan fill="#669900" x="53.6667" y="51">created_at</tspan><tspan fill="#669900" x="130.333" y="51">'</tspan><tspan x="138" y="51">: </tspan><tspan fill="#669900" x="153.333" y="51">'Mon Jun 24 20:55:33 +0000 2019'</tspan><tspan x="398.667" y="51">,</tspan><tspan fill="#669900" x="46" y="67">'</tspan><tspan fill="#669900" x="53.6667" y="67">id</tspan><tspan fill="#669900" x="69" y="67">'</tspan><tspan x="76.6667" y="67">: </tspan><tspan fill="#990055" x="92" y="67">1143261401902964746</tspan>,<tspan fill="#669900" x="46" y="84">'</tspan><tspan fill="#669900" x="53.6667" y="84">id_str</tspan><tspan fill="#669900" x="99.6667" y="84">'</tspan><tspan x="107.333" y="84">: </tspan><tspan fill="#669900" x="122.667" y="84">'1143261401902964746'</tspan>,<tspan fill="#669900" x="46" y="101">'</tspan><tspan fill="#669900" x="53.6667" y="101">full_text</tspan><tspan fill="#669900" x="122.667" y="101">'</tspan><tspan x="130.333" y="101">: </tspan><tspan fill="#669900" x="145.667" y="101">'Ein schwarzer Tag für die #Bundeswehr. Ein schwarzer Tag für </tspan><tspan fill="#669900" font-family="Segoe UI Emoji,Segoe UI Emoji_MSFontService,sans-serif" x="621" y="101">🇩🇪</tspan><tspan fill="#669900" x="634.5" y="101">. Wir trauern um den verunglückten</tspan><tspan fill="#669900" x="153.333" y="118">Kameraden. Herzliches Beileid an die Hinterbliebenen</tspan><tspan fill="#669900" x="559.667" y="118">! </tspan><tspan fill="#669900" font-family="Segoe UI Emoji,Segoe UI Emoji_MSFontService,sans-serif" x="575" y="118">😥😥😥</tspan><tspan fill="#669900" x="632.5" y="118">\</tspan><tspan fill="#669900" x="640.167" y="118">n#Eurofighter</tspan><tspan fill="#669900" x="747.5" y="118">@</tspan><tspan fill="#669900" x="755.167" y="118">bundeswehrInfo</tspan><tspan fill="#669900" x="153.333" y="135">@</tspan><tspan fill="#669900" x="161" y="135">Team_Luftwaffe</tspan><tspan fill="#669900" x="276" y="135">https://t.co/06oZSS0V0Q</tspan><tspan fill="#669900" x="452.333" y="135">'</tspan><tspan x="460" y="135">,</tspan><tspan fill="#669900" x="46" y="151">'</tspan><tspan fill="#669900" x="53.6667" y="151">truncated</tspan><tspan fill="#669900" x="122.667" y="151">'</tspan><tspan x="130.333" y="151">: </tspan><tspan fill="#990055" x="145.667" y="151">false</tspan><tspan x="184" y="151">,</tspan><tspan fill="#669900" x="46" y="168">'</tspan><tspan fill="#669900" x="53.6667" y="168">entities</tspan><tspan fill="#669900" x="115" y="168">' </tspan><tspan x="130.333" y="168">: {</tspan><tspan fill="#669900" x="61.3333" y="185">'</tspan><tspan fill="#669900" x="69" y="185">hashtags</tspan><tspan fill="#669900" x="130.333" y="185">'</tspan><tspan x="145.667" y="185">: [</tspan><tspan x="76.6667" y="202">{</tspan><tspan fill="#669900" x="84.3333" y="202">'</tspan><tspan fill="#669900" x="92" y="202">text</tspan><tspan fill="#669900" x="122.667" y="202">'</tspan><tspan x="138" y="202">: </tspan><tspan fill="#669900" x="153.333" y="202">'Bundeswehr'</tspan>, <tspan fill="#669900" x="260.667" y="202">'</tspan><tspan fill="#669900" x="268.333" y="202">indices</tspan><tspan fill="#669900" x="322" y="202">'</tspan><tspan x="337.333" y="202">: [</tspan><tspan fill="#990055" x="360.333" y="202">26</tspan><tspan x="375.667" y="202">, </tspan><tspan fill="#990055" x="391" y="202">37</tspan><tspan x="406.333" y="202">]},</tspan><tspan x="76.6667" y="219">{</tspan><tspan fill="#669900" x="84.3333" y="219">'</tspan><tspan fill="#669900" x="92" y="219">text</tspan><tspan fill="#669900" x="122.667" y="219">'</tspan><tspan x="138" y="219">: </tspan><tspan fill="#669900" x="153.333" y="219">'Eurofighter'</tspan><tspan x="253" y="219">, </tspan><tspan fill="#669900" x="268.333" y="219">'</tspan><tspan fill="#669900" x="276" y="219">indices</tspan><tspan fill="#669900" x="329.667" y="219">'</tspan><tspan x="345" y="219">: [</tspan><tspan fill="#990055" x="368" y="219">156</tspan>, <tspan fill="#990055" x="406.333" y="219">168</tspan>]}<tspan x="61.3333" y="235">],</tspan><tspan fill="#669900" x="61.3333" y="252">'</tspan><tspan fill="#669900" x="69" y="252">user_</tspan><tspan fill="#669900" x="107.333" y="252">mentions</tspan><tspan fill="#669900" x="168.667" y="252">'</tspan><tspan x="184" y="252">: [</tspan><tspan x="76.6667" y="269">{</tspan><tspan fill="#669900" x="84.3333" y="269">'</tspan><tspan fill="#669900" x="92" y="269">name</tspan><tspan fill="#669900" x="122.667" y="269">'</tspan><tspan x="138" y="269">: </tspan><tspan fill="#669900" x="153.333" y="269">'Bundeswehr'</tspan>, <tspan fill="#669900" x="260.667" y="269">'</tspan><tspan fill="#669900" x="268.333" y="269">id</tspan><tspan fill="#669900" x="283.667" y="269">'</tspan><tspan x="299" y="269">: </tspan><tspan fill="#990055" x="314.333" y="269">121415484</tspan><tspan x="383.333" y="269">, </tspan><tspan fill="#669900" x="398.667" y="269">'</tspan><tspan fill="#669900" x="406.333" y="269">indices</tspan><tspan fill="#669900" x="460" y="269">'</tspan><tspan x="475.333" y="269">: [</tspan><tspan fill="#990055" x="498.333" y="269">16</tspan><tspan fill="#990055" x="513.667" y="269">9</tspan><tspan x="521.333" y="269">, </tspan><tspan fill="#990055" x="536.667" y="269">184</tspan>]},<tspan x="76.6667" y="286">{</tspan><tspan fill="#669900" x="84.3333" y="286">'</tspan><tspan fill="#669900" x="92" y="286">text</tspan><tspan fill="#669900" x="122.667" y="286">'</tspan><tspan x="138" y="286">: </tspan><tspan fill="#669900" x="153.333" y="286">'</tspan><tspan fill="#669900" x="161" y="286">Team_Luftwaffe</tspan><tspan fill="#669900" x="268.333" y="286">'</tspan><tspan x="276" y="286">, </tspan><tspan fill="#669900" x="291.333" y="286">'</tspan><tspan fill="#669900" x="299" y="286">id</tspan><tspan fill="#669900" x="314.333" y="286">'</tspan><tspan x="329.667" y="286">: </tspan><tspan fill="#990055" x="345" y="286">1083628690393698305</tspan>, <tspan fill="#669900" x="506" y="286">'</tspan><tspan fill="#669900" x="513.667" y="286">indices</tspan><tspan fill="#669900" x="567.333" y="286">'</tspan><tspan x="582.667" y="286">: [</tspan><tspan fill="#990055" x="605.667" y="286">185</tspan>, <tspan fill="#990055" x="644" y="286">200</tspan>]}<tspan x="53.6667" y="303">},</tspan><tspan fill="#669900" x="46" y="319">'</tspan><tspan fill="#669900" x="53.6667" y="319">metadata</tspan><tspan fill="#669900" x="115" y="319">'</tspan><tspan x="130.333" y="319">: {</tspan><tspan fill="#669900" x="61.3333" y="336">'</tspan><tspan fill="#669900" x="69" y="336">r</tspan><tspan fill="#669900" x="76.6667" y="336">esult_type</tspan><tspan fill="#669900" x="153.333" y="336">'</tspan><tspan x="168.667" y="336">: </tspan><tspan fill="#669900" x="184" y="336">'</tspan><tspan fill="#669900" x="191.667" y="336">popular</tspan><tspan fill="#669900" x="245.333" y="336">',</tspan><tspan fill="#669900" x="61.3333" y="353">'</tspan><tspan fill="#669900" x="69" y="353">iso_lang_code</tspan><tspan fill="#669900" x="168.667" y="353">'</tspan><tspan x="184" y="353">: </tspan><tspan fill="#669900" x="199.333" y="353">'de‘</tspan><tspan x="46" y="370">},</tspan><tspan fill="#1F4E79" x="46" y="387">[</tspan><tspan fill="#1F4E79" x="53.6667" y="387">...]</tspan><tspan x="30.6667" y="403">},</tspan><tspan x="30.6667" y="420">{</tspan><tspan fill="#669900" x="46" y="437">'</tspan><tspan fill="#669900" x="53.6667" y="437">created_at</tspan><tspan fill="#669900" x="130.333" y="437">'</tspan><tspan x="138" y="437">: </tspan><tspan fill="#669900" x="153.333" y="437">'Mon Jun 24 16:03:43 +0000 2019'</tspan><tspan x="398.667" y="437">,</tspan><tspan fill="#669900" x="46" y="454">'</tspan><tspan fill="#669900" x="53.6667" y="454">id</tspan><tspan fill="#669900" x="69" y="454">'</tspan><tspan x="76.6667" y="454">: </tspan><tspan fill="#990055" x="92" y="454">1143187958255759361</tspan>,<tspan fill="#1F4E79" x="46" y="471">[...]</tspan><tspan x="0" y="487">}</tspan></text></g></svg>