<svg width="894" height="82" xmlns="http://www.w3.org/2000/svg" xmlns:xlink="http://www.w3.org/1999/xlink" overflow="hidden"><defs><clipPath id="clip0"><path d="M128 146 1022 146 1022 228 128 228Z" fill-rule="evenodd" clip-rule="evenodd"/></clipPath></defs><g clip-path="url(#clip0)" transform="translate(-128 -146)"><text fill="#A6A6A6" font-family="Consolas,Consolas_MSFontService,sans-serif" font-weight="400" font-size="14" transform="translate(138.489 164)">&lt;<tspan fill="#FD2F2F" x="7.66667" y="0">word</tspan><tspan fill="#FC9E36" x="46" y="0">form</tspan>=<tspan fill="#669900" x="84.3333" y="0">"good"</tspan><tspan fill="#FC9E36" x="138" y="0">wordnet</tspan><tspan fill="#FC9E36" x="191.667" y="0">_id</tspan>=<tspan fill="#669900" x="222.333" y="0">"a</tspan><tspan fill="#669900" x="237.667" y="0">-</tspan><tspan fill="#669900" x="245.333" y="0">01123148"</tspan><tspan fill="#FC9E36" x="322" y="0">pos</tspan>=<tspan fill="#669900" x="352.667" y="0">"JJ"</tspan><tspan fill="#FC9E36" x="391" y="0">sense</tspan><tspan x="429.333" y="0">=</tspan><tspan fill="#669900" x="437" y="0">"having desirable or positive qualities especially those </tspan><tspan fill="#669900" x="0" y="17">suitable for a thing specified"</tspan><tspan fill="#FC9E36" x="245.333" y="17">polarity</tspan><tspan fill="#669900" x="306.667" y="17">="0.7"</tspan><tspan fill="#FC9E36" x="360.333" y="17">subjectivity</tspan><tspan x="452.333" y="17">=</tspan><tspan fill="#669900" x="460" y="17">"0.4"</tspan><tspan fill="#FC9E36" x="506" y="17">intensity</tspan>=<tspan fill="#669900" x="582.667" y="17">"1.0"</tspan><tspan fill="#FC9E36" x="628.667" y="17">confidence</tspan><tspan x="705.333" y="17">=</tspan><tspan fill="#669900" x="713" y="17">"0.8"</tspan><tspan x="759" y="17">/&gt;</tspan><tspan x="0" y="34">&lt;</tspan><tspan fill="#FD2F2F" x="7.66667" y="34">word</tspan><tspan fill="#FC9E36" x="46" y="34">form</tspan>=<tspan fill="#669900" x="84.3333" y="34">"good"</tspan><tspan fill="#FC9E36" x="138" y="34">wordnet</tspan><tspan fill="#FC9E36" x="191.667" y="34">_id</tspan>=<tspan fill="#669900" x="222.333" y="34">"a</tspan><tspan fill="#669900" x="237.667" y="34">-</tspan><tspan fill="#669900" x="245.333" y="34">01166413"</tspan><tspan fill="#FC9E36" x="322" y="34">pos</tspan>=<tspan fill="#669900" x="352.667" y="34">"JJ"</tspan><tspan fill="#FC9E36" x="391" y="34">sense</tspan><tspan x="429.333" y="34">=</tspan><tspan fill="#669900" x="437" y="34">"tending to promote physical well</tspan><tspan fill="#669900" x="690" y="34">-</tspan><tspan fill="#669900" x="697.667" y="34">being"</tspan><tspan fill="#FC9E36" x="751.333" y="34">polarity</tspan><tspan x="812.667" y="34">=</tspan><tspan fill="#669900" x="820.333" y="34">"0.7"</tspan><tspan fill="#FC9E36" x="0" y="51">subjectivity</tspan>=<tspan fill="#669900" x="99.6667" y="51">"0.8"</tspan><tspan fill="#FC9E36" x="145.667" y="51">intensity</tspan><tspan x="214.667" y="51">=</tspan><tspan fill="#669900" x="222.333" y="51">"1.0"</tspan><tspan fill="#FC9E36" x="268.333" y="51">confidence</tspan>=<tspan fill="#669900" x="352.667" y="51">"0.8"</tspan><tspan x="398.667" y="51">/&gt;</tspan></text></g></svg>