<svg width="899" height="140" xmlns="http://www.w3.org/2000/svg" xmlns:xlink="http://www.w3.org/1999/xlink" overflow="hidden"><defs><clipPath id="clip0"><path d="M140 186 1039 186 1039 326 140 326Z" fill-rule="evenodd" clip-rule="evenodd"/></clipPath></defs><g clip-path="url(#clip0)" transform="translate(-140 -186)"><path d="M243.29 187.279 289.323 187.279 289.323 226.212 243.29 226.212Z" fill="#1F4E79" fill-rule="evenodd" fill-opacity="0.4"/><path d="M289.323 187.279 337.843 187.279 337.843 226.212 289.323 226.212Z" fill="#1F4E79" fill-rule="evenodd" fill-opacity="0.4"/><path d="M571.597 187.279 625.297 187.279 625.297 226.212 571.597 226.212Z" fill="#1F4E79" fill-rule="evenodd" fill-opacity="0.4"/><path d="M744.897 187.279 807.45 187.279 807.45 226.212 744.897 226.212Z" fill="#1F4E79" fill-rule="evenodd" fill-opacity="0.4"/><path d="M807.45 187.279 863.297 187.279 863.297 226.212 807.45 226.212Z" fill="#1F4E79" fill-rule="evenodd" fill-opacity="0.4"/><path d="M863.297 187.279 933.983 187.279 933.983 226.212 863.297 226.212Z" fill="#1F4E79" fill-rule="evenodd" fill-opacity="0.4"/><path d="M289.323 186.612 289.323 226.879" stroke="#1F4E79" stroke-width="1.33333" stroke-linejoin="round" stroke-miterlimit="10" fill="none" fill-rule="evenodd"/><path d="M337.843 186.612 337.843 226.879" stroke="#1F4E79" stroke-width="1.33333" stroke-linejoin="round" stroke-miterlimit="10" fill="none" fill-rule="evenodd"/><path d="M378.21 186.612 378.21 226.879" stroke="#1F4E79" stroke-width="1.33333" stroke-linejoin="round" stroke-miterlimit="10" fill="none" fill-rule="evenodd"/><path d="M439.93 186.612 439.93 226.879" stroke="#1F4E79" stroke-width="1.33333" stroke-linejoin="round" stroke-miterlimit="10" fill="none" fill-rule="evenodd"/><path d="M490.33 186.612 490.33 226.879" stroke="#1F4E79" stroke-width="1.33333" stroke-linejoin="round" stroke-miterlimit="10" fill="none" fill-rule="evenodd"/><path d="M536.397 186.612 536.397 226.879" stroke="#1F4E79" stroke-width="1.33333" stroke-linejoin="round" stroke-miterlimit="10" fill="none" fill-rule="evenodd"/><path d="M571.597 186.612 571.597 226.879" stroke="#1F4E79" stroke-width="1.33333" stroke-linejoin="round" stroke-miterlimit="10" fill="none" fill-rule="evenodd"/><path d="M625.297 186.612 625.297 226.879" stroke="#1F4E79" stroke-width="1.33333" stroke-linejoin="round" stroke-miterlimit="10" fill="none" fill-rule="evenodd"/><path d="M652.497 186.612 652.497 226.879" stroke="#1F4E79" stroke-width="1.33333" stroke-linejoin="round" stroke-miterlimit="10" fill="none" fill-rule="evenodd"/><path d="M700.03 186.612 700.03 226.879" stroke="#1F4E79" stroke-width="1.33333" stroke-linejoin="round" stroke-miterlimit="10" fill="none" fill-rule="evenodd"/><path d="M744.897 186.612 744.897 226.879" stroke="#1F4E79" stroke-width="1.33333" stroke-linejoin="round" stroke-miterlimit="10" fill="none" fill-rule="evenodd"/><path d="M807.45 186.612 807.45 226.879" stroke="#1F4E79" stroke-width="1.33333" stroke-linejoin="round" stroke-miterlimit="10" fill="none" fill-rule="evenodd"/><path d="M863.297 186.612 863.297 226.879" stroke="#1F4E79" stroke-width="1.33333" stroke-linejoin="round" stroke-miterlimit="10" fill="none" fill-rule="evenodd"/><path d="M933.983 186.612 933.983 226.879" stroke="#1F4E79" stroke-width="1.33333" stroke-linejoin="round" stroke-miterlimit="10" fill="none" fill-rule="evenodd"/><path d="M1009.51 186.612 1009.51 226.879" stroke="#1F4E79" stroke-width="1.33333" stroke-linejoin="round" stroke-miterlimit="10" fill="none" fill-rule="evenodd"/><path d="M243.29 186.612 243.29 226.879" stroke="#1F4E79" stroke-width="1.33333" stroke-linejoin="round" stroke-miterlimit="10" fill="none" fill-rule="evenodd"/><path d="M1036.71 186.612 1036.71 226.879" stroke="#1F4E79" stroke-width="1.33333" stroke-linejoin="round" stroke-miterlimit="10" fill="none" fill-rule="evenodd"/><path d="M242.623 187.279 1037.38 187.279" stroke="#1F4E79" stroke-width="1.33333" stroke-linejoin="round" stroke-miterlimit="10" fill="none" fill-rule="evenodd"/><path d="M242.623 226.212 1037.38 226.212" stroke="#1F4E79" stroke-width="1.33333" stroke-linejoin="round" stroke-miterlimit="10" fill="none" fill-rule="evenodd"/><text font-family="Times New Roman,Times New Roman_MSFontService,sans-serif" font-weight="400" font-size="16" transform="translate(261.39 212)">It<tspan x="39.7766" y="0">was</tspan><tspan x="93.0533" y="0">a</tspan><tspan x="128.513" y="0">bright</tspan><tspan x="189.907" y="0">cold</tspan><tspan x="240.39" y="0">day</tspan><tspan x="286.357" y="0">in</tspan><tspan x="320.14" y="0">April</tspan><tspan x="375.507" y="0">,</tspan><tspan x="403.29" y="0">and</tspan><tspan x="451.24" y="0">the</tspan><tspan x="494.283" y="0">clocks</tspan><tspan x="558.4" y="0">were</tspan><tspan x="612.75" y="0">striking</tspan><tspan x="685.773" y="0">thirteen</tspan><tspan x="759.72" y="0">.</tspan></text><path d="M243.29 284.581 289.323 284.581 289.323 323.514 243.29 323.514Z" fill="#1F4E79" fill-rule="evenodd" fill-opacity="0.4"/><path d="M289.323 284.581 337.843 284.581 337.843 323.514 289.323 323.514Z" fill="#1F4E79" fill-rule="evenodd" fill-opacity="0.4"/><path d="M571.597 284.581 625.297 284.581 625.297 323.514 571.597 323.514Z" fill="#1F4E79" fill-rule="evenodd" fill-opacity="0.4"/><path d="M744.897 284.581 807.45 284.581 807.45 323.514 744.897 323.514Z" fill="#1F4E79" fill-rule="evenodd" fill-opacity="0.4"/><path d="M807.45 284.581 863.297 284.581 863.297 323.514 807.45 323.514Z" fill="#1F4E79" fill-rule="evenodd" fill-opacity="0.4"/><path d="M863.297 284.581 933.983 284.581 933.983 323.514 863.297 323.514Z" fill="#1F4E79" fill-rule="evenodd" fill-opacity="0.4"/><path d="M289.323 283.914 289.323 324.181" stroke="#1F4E79" stroke-width="1.33333" stroke-linejoin="round" stroke-miterlimit="10" fill="none" fill-rule="evenodd"/><path d="M337.843 283.914 337.843 324.181" stroke="#1F4E79" stroke-width="1.33333" stroke-linejoin="round" stroke-miterlimit="10" fill="none" fill-rule="evenodd"/><path d="M378.21 283.914 378.21 324.181" stroke="#1F4E79" stroke-width="1.33333" stroke-linejoin="round" stroke-miterlimit="10" fill="none" fill-rule="evenodd"/><path d="M439.93 283.914 439.93 324.181" stroke="#1F4E79" stroke-width="1.33333" stroke-linejoin="round" stroke-miterlimit="10" fill="none" fill-rule="evenodd"/><path d="M490.33 283.914 490.33 324.181" stroke="#1F4E79" stroke-width="1.33333" stroke-linejoin="round" stroke-miterlimit="10" fill="none" fill-rule="evenodd"/><path d="M536.397 283.914 536.397 324.181" stroke="#1F4E79" stroke-width="1.33333" stroke-linejoin="round" stroke-miterlimit="10" fill="none" fill-rule="evenodd"/><path d="M571.597 283.914 571.597 324.181" stroke="#1F4E79" stroke-width="1.33333" stroke-linejoin="round" stroke-miterlimit="10" fill="none" fill-rule="evenodd"/><path d="M625.297 283.914 625.297 324.181" stroke="#1F4E79" stroke-width="1.33333" stroke-linejoin="round" stroke-miterlimit="10" fill="none" fill-rule="evenodd"/><path d="M652.497 283.914 652.497 324.181" stroke="#1F4E79" stroke-width="1.33333" stroke-linejoin="round" stroke-miterlimit="10" fill="none" fill-rule="evenodd"/><path d="M700.03 283.914 700.03 324.181" stroke="#1F4E79" stroke-width="1.33333" stroke-linejoin="round" stroke-miterlimit="10" fill="none" fill-rule="evenodd"/><path d="M744.897 283.914 744.897 324.181" stroke="#1F4E79" stroke-width="1.33333" stroke-linejoin="round" stroke-miterlimit="10" fill="none" fill-rule="evenodd"/><path d="M807.45 283.914 807.45 324.181" stroke="#1F4E79" stroke-width="1.33333" stroke-linejoin="round" stroke-miterlimit="10" fill="none" fill-rule="evenodd"/><path d="M863.297 283.914 863.297 324.181" stroke="#1F4E79" stroke-width="1.33333" stroke-linejoin="round" stroke-miterlimit="10" fill="none" fill-rule="evenodd"/><path d="M933.983 283.914 933.983 324.181" stroke="#1F4E79" stroke-width="1.33333" stroke-linejoin="round" stroke-miterlimit="10" fill="none" fill-rule="evenodd"/><path d="M1009.51 283.914 1009.51 324.181" stroke="#1F4E79" stroke-width="1.33333" stroke-linejoin="round" stroke-miterlimit="10" fill="none" fill-rule="evenodd"/><path d="M243.29 283.914 243.29 324.181" stroke="#1F4E79" stroke-width="1.33333" stroke-linejoin="round" stroke-miterlimit="10" fill="none" fill-rule="evenodd"/><path d="M1036.71 283.914 1036.71 324.181" stroke="#1F4E79" stroke-width="1.33333" stroke-linejoin="round" stroke-miterlimit="10" fill="none" fill-rule="evenodd"/><path d="M242.623 284.581 1037.38 284.581" stroke="#1F4E79" stroke-width="1.33333" stroke-linejoin="round" stroke-miterlimit="10" fill="none" fill-rule="evenodd"/><path d="M242.623 323.514 1037.38 323.514" stroke="#1F4E79" stroke-width="1.33333" stroke-linejoin="round" stroke-miterlimit="10" fill="none" fill-rule="evenodd"/><text font-family="Times New Roman,Times New Roman_MSFontService,sans-serif" font-weight="400" font-size="16" transform="translate(261.806 309)">it<tspan x="44.1933" y="0">be</tspan><tspan x="92.6367" y="0">a</tspan><tspan x="128.097" y="0">bright</tspan><tspan x="189.49" y="0">cold</tspan><tspan x="239.973" y="0">day</tspan><tspan x="285.94" y="0">in</tspan><tspan x="321.89" y="0">april</tspan><tspan x="375.09" y="0">,</tspan><tspan x="402.873" y="0">and</tspan><tspan x="450.823" y="0">the</tspan><tspan x="496.95" y="0">clock</tspan><tspan x="565.984" y="0">be</tspan><tspan x="619" y="0">strike</tspan><tspan x="685.357" y="0">thirteen</tspan><tspan x="759.304" y="0">.</tspan></text><path d="M267 234.5 267 272.211 266 272.211 266 234.5ZM270.5 270.877 266.5 278.877 262.5 270.877Z" fill="#1F4E79"/><path d="M313 234.5 313 272.211 312 272.211 312 234.5ZM316.5 270.877 312.5 278.877 308.5 270.877Z" fill="#1F4E79"/><path d="M600 234.5 600 272.211 599 272.211 599 234.5ZM603.5 270.877 599.5 278.877 595.5 270.877Z" fill="#1F4E79"/><path d="M777 234.5 777 272.211 776 272.211 776 234.5ZM780.5 270.877 776.5 278.877 772.5 270.877Z" fill="#1F4E79"/><path d="M835 235.5 835 273.211 834 273.211 834 235.5ZM838.5 271.877 834.5 279.877 830.5 271.877Z" fill="#1F4E79"/><path d="M901 235.5 901 273.211 900 273.211 900 235.5ZM904.5 271.877 900.5 279.877 896.5 271.877Z" fill="#1F4E79"/><text fill="#1F4E79" font-family="Times New Roman,Times New Roman_MSFontService,sans-serif" font-weight="400" font-size="16" transform="translate(169.733 212)">Wörter<tspan x="-15.3333" y="97">Lemmata</tspan></text></g></svg>