<svg width="797" height="174" xmlns="http://www.w3.org/2000/svg" xmlns:xlink="http://www.w3.org/1999/xlink" overflow="hidden"><defs><clipPath id="clip0"><path d="M232 242 1029 242 1029 416 232 416Z" fill-rule="evenodd" clip-rule="evenodd"/></clipPath></defs><g clip-path="url(#clip0)" transform="translate(-232 -242)"><path d="M631 289.5 631 317.5 630 317.5 630 289.5ZM634.5 316.167 630.5 324.167 626.5 316.167Z" fill="#1F4E79"/><path d="M279.532 335.14 279.532 414.34" stroke="#1F4E79" stroke-width="1.33333" stroke-linejoin="round" stroke-miterlimit="10" fill="none" fill-rule="evenodd"/><path d="M328.052 335.14 328.052 414.34" stroke="#1F4E79" stroke-width="1.33333" stroke-linejoin="round" stroke-miterlimit="10" fill="none" fill-rule="evenodd"/><path d="M368.418 335.14 368.418 414.34" stroke="#1F4E79" stroke-width="1.33333" stroke-linejoin="round" stroke-miterlimit="10" fill="none" fill-rule="evenodd"/><path d="M430.138 335.14 430.138 414.34" stroke="#1F4E79" stroke-width="1.33333" stroke-linejoin="round" stroke-miterlimit="10" fill="none" fill-rule="evenodd"/><path d="M480.538 335.14 480.538 414.34" stroke="#1F4E79" stroke-width="1.33333" stroke-linejoin="round" stroke-miterlimit="10" fill="none" fill-rule="evenodd"/><path d="M526.605 335.14 526.605 414.34" stroke="#1F4E79" stroke-width="1.33333" stroke-linejoin="round" stroke-miterlimit="10" fill="none" fill-rule="evenodd"/><path d="M561.805 335.14 561.805 414.34" stroke="#1F4E79" stroke-width="1.33333" stroke-linejoin="round" stroke-miterlimit="10" fill="none" fill-rule="evenodd"/><path d="M615.505 335.14 615.505 414.34" stroke="#1F4E79" stroke-width="1.33333" stroke-linejoin="round" stroke-miterlimit="10" fill="none" fill-rule="evenodd"/><path d="M642.705 335.14 642.705 414.34" stroke="#1F4E79" stroke-width="1.33333" stroke-linejoin="round" stroke-miterlimit="10" fill="none" fill-rule="evenodd"/><path d="M690.238 335.14 690.238 414.34" stroke="#1F4E79" stroke-width="1.33333" stroke-linejoin="round" stroke-miterlimit="10" fill="none" fill-rule="evenodd"/><path d="M735.105 335.14 735.105 414.34" stroke="#1F4E79" stroke-width="1.33333" stroke-linejoin="round" stroke-miterlimit="10" fill="none" fill-rule="evenodd"/><path d="M797.658 335.14 797.658 414.34" stroke="#1F4E79" stroke-width="1.33333" stroke-linejoin="round" stroke-miterlimit="10" fill="none" fill-rule="evenodd"/><path d="M853.505 335.14 853.505 414.34" stroke="#1F4E79" stroke-width="1.33333" stroke-linejoin="round" stroke-miterlimit="10" fill="none" fill-rule="evenodd"/><path d="M924.192 335.14 924.192 414.34" stroke="#1F4E79" stroke-width="1.33333" stroke-linejoin="round" stroke-miterlimit="10" fill="none" fill-rule="evenodd"/><path d="M999.718 335.14 999.718 414.34" stroke="#1F4E79" stroke-width="1.33333" stroke-linejoin="round" stroke-miterlimit="10" fill="none" fill-rule="evenodd"/><path d="M232.832 374.74 1027.59 374.74" stroke="#1F4E79" stroke-width="1.33333" stroke-linejoin="round" stroke-miterlimit="10" fill="none" fill-rule="evenodd"/><path d="M233.498 335.14 233.498 414.34" stroke="#1F4E79" stroke-width="1.33333" stroke-linejoin="round" stroke-miterlimit="10" fill="none" fill-rule="evenodd"/><path d="M1026.92 335.14 1026.92 414.34" stroke="#1F4E79" stroke-width="1.33333" stroke-linejoin="round" stroke-miterlimit="10" fill="none" fill-rule="evenodd"/><path d="M232.832 335.807 1027.59 335.807" stroke="#1F4E79" stroke-width="1.33333" stroke-linejoin="round" stroke-miterlimit="10" fill="none" fill-rule="evenodd"/><path d="M232.832 413.674 1027.59 413.674" stroke="#1F4E79" stroke-width="1.33333" stroke-linejoin="round" stroke-miterlimit="10" fill="none" fill-rule="evenodd"/><text font-family="Times New Roman,Times New Roman_MSFontService,sans-serif" font-weight="400" font-size="16" transform="translate(251.598 361)">It<tspan x="39.7766" y="0">was</tspan><tspan x="93.0533" y="0">a</tspan><tspan x="128.513" y="0">bright</tspan><tspan x="189.907" y="0">cold</tspan><tspan x="240.39" y="0">day</tspan><tspan x="286.357" y="0">in</tspan><tspan x="320.14" y="0">April</tspan><tspan x="375.507" y="0">,</tspan><tspan x="403.29" y="0">and</tspan><tspan x="451.24" y="0">the</tspan><tspan x="494.283" y="0">clocks</tspan><tspan x="558.4" y="0">were</tspan><tspan x="612.75" y="0">striking</tspan><tspan x="685.774" y="0">thirteen</tspan><tspan x="759.72" y="0">.</tspan><tspan font-size="13" x="-6.83334" y="38">PRP</tspan><tspan font-size="13" x="38.11" y="38">VBD</tspan><tspan font-size="13" x="87.72" y="38">DT</tspan><tspan font-size="13" x="142.513" y="38">JJ</tspan><tspan font-size="13" x="194.073" y="38">NN</tspan><tspan font-size="13" x="242.307" y="38">NN</tspan><tspan font-size="13" x="285.523" y="38">IN</tspan><tspan font-size="13" x="323.723" y="38">NNP</tspan><tspan font-size="13" x="375.84" y="38">,</tspan><tspan font-size="13" x="406.04" y="38">CC</tspan><tspan font-size="13" x="452.157" y="38">DT</tspan><tspan font-size="13" x="501.45" y="38">NNS</tspan><tspan font-size="13" x="559.9" y="38">VBD</tspan><tspan font-size="13" x="623.167" y="38">VBG</tspan><tspan font-size="13" x="701.107" y="38">CD</tspan><tspan font-size="13" x="760.054" y="38">.</tspan></text><path d="M233.498 242.644 233.498 282.911" stroke="#1F4E79" stroke-width="1.33333" stroke-linejoin="round" stroke-miterlimit="10" fill="none" fill-rule="evenodd"/><path d="M1026.92 242.644 1026.92 282.911" stroke="#1F4E79" stroke-width="1.33333" stroke-linejoin="round" stroke-miterlimit="10" fill="none" fill-rule="evenodd"/><path d="M232.832 243.311 1027.58 243.311" stroke="#1F4E79" stroke-width="1.33333" stroke-linejoin="round" stroke-miterlimit="10" fill="none" fill-rule="evenodd"/><path d="M232.832 282.244 1027.58 282.244" stroke="#1F4E79" stroke-width="1.33333" stroke-linejoin="round" stroke-miterlimit="10" fill="none" fill-rule="evenodd"/><text font-family="Times New Roman,Times New Roman_MSFontService,sans-serif" font-weight="400" font-size="16" transform="translate(405.398 268)">It was a bright cold day in April, and the clocks were striking thirteen.</text></g></svg>