<svg width="870" height="466" xmlns="http://www.w3.org/2000/svg" xmlns:xlink="http://www.w3.org/1999/xlink" overflow="hidden"><defs><clipPath id="clip0"><path d="M169 62 1039 62 1039 528 169 528Z" fill-rule="evenodd" clip-rule="evenodd"/></clipPath></defs><g clip-path="url(#clip0)" transform="translate(-169 -62)"><path d="M367 115.5 367 143.5 366 143.5 366 115.5ZM370.5 142.167 366.5 150.167 362.5 142.167Z" fill="#1F4E79"/><path d="M292.879 69.907 342.467 69.907 342.467 98.707 292.879 98.707Z" fill="#DAE3F3" fill-rule="evenodd"/><path d="M342.467 69.907 392.056 69.907 392.056 98.707 342.467 98.707Z" fill="#DAE3F3" fill-rule="evenodd"/><path d="M392.056 69.907 441.645 69.907 441.645 98.707 392.056 98.707Z" fill="#DAE3F3" fill-rule="evenodd"/><path d="M292.879 69.2403 292.879 99.3736" stroke="#1F4E79" stroke-width="1.33333" stroke-linejoin="round" stroke-miterlimit="10" fill="none" fill-rule="evenodd"/><path d="M342.467 69.2403 342.467 99.3736" stroke="#1F4E79" stroke-width="1.33333" stroke-linejoin="round" stroke-miterlimit="10" fill="none" fill-rule="evenodd"/><path d="M392.056 69.2403 392.056 99.3736" stroke="#1F4E79" stroke-width="1.33333" stroke-linejoin="round" stroke-miterlimit="10" fill="none" fill-rule="evenodd"/><path d="M441.645 69.2403 441.645 99.3736" stroke="#1F4E79" stroke-width="1.33333" stroke-linejoin="round" stroke-miterlimit="10" fill="none" fill-rule="evenodd"/><path d="M491.234 69.2403 491.234 99.3736" stroke="#1F4E79" stroke-width="1.33333" stroke-linejoin="round" stroke-miterlimit="10" fill="none" fill-rule="evenodd"/><path d="M540.822 69.2403 540.822 99.3736" stroke="#1F4E79" stroke-width="1.33333" stroke-linejoin="round" stroke-miterlimit="10" fill="none" fill-rule="evenodd"/><path d="M590.411 69.2403 590.411 99.3736" stroke="#1F4E79" stroke-width="1.33333" stroke-linejoin="round" stroke-miterlimit="10" fill="none" fill-rule="evenodd"/><path d="M640 69.2403 640 99.3736" stroke="#1F4E79" stroke-width="1.33333" stroke-linejoin="round" stroke-miterlimit="10" fill="none" fill-rule="evenodd"/><path d="M689.589 69.2403 689.589 99.3736" stroke="#1F4E79" stroke-width="1.33333" stroke-linejoin="round" stroke-miterlimit="10" fill="none" fill-rule="evenodd"/><path d="M739.177 69.2403 739.177 99.3736" stroke="#1F4E79" stroke-width="1.33333" stroke-linejoin="round" stroke-miterlimit="10" fill="none" fill-rule="evenodd"/><path d="M788.766 69.2403 788.766 99.3736" stroke="#1F4E79" stroke-width="1.33333" stroke-linejoin="round" stroke-miterlimit="10" fill="none" fill-rule="evenodd"/><path d="M838.355 69.2403 838.355 99.3736" stroke="#1F4E79" stroke-width="1.33333" stroke-linejoin="round" stroke-miterlimit="10" fill="none" fill-rule="evenodd"/><path d="M887.944 69.2403 887.944 99.3736" stroke="#1F4E79" stroke-width="1.33333" stroke-linejoin="round" stroke-miterlimit="10" fill="none" fill-rule="evenodd"/><path d="M937.533 69.2403 937.533 99.3736" stroke="#1F4E79" stroke-width="1.33333" stroke-linejoin="round" stroke-miterlimit="10" fill="none" fill-rule="evenodd"/><path d="M987.121 69.2403 987.121 99.3736" stroke="#1F4E79" stroke-width="1.33333" stroke-linejoin="round" stroke-miterlimit="10" fill="none" fill-rule="evenodd"/><path d="M243.29 69.2403 243.29 99.3736" stroke="#1F4E79" stroke-width="1.33333" stroke-linejoin="round" stroke-miterlimit="10" fill="none" fill-rule="evenodd"/><path d="M1036.71 69.2403 1036.71 99.3736" stroke="#1F4E79" stroke-width="1.33333" stroke-linejoin="round" stroke-miterlimit="10" fill="none" fill-rule="evenodd"/><path d="M242.623 69.907 1037.38 69.907" stroke="#1F4E79" stroke-width="1.33333" stroke-linejoin="round" stroke-miterlimit="10" fill="none" fill-rule="evenodd"/><path d="M242.623 98.707 1037.38 98.707" stroke="#1F4E79" stroke-width="1.33333" stroke-linejoin="round" stroke-miterlimit="10" fill="none" fill-rule="evenodd"/><text font-family="Consolas,Consolas_MSFontService,sans-serif" font-weight="400" font-size="16" transform="translate(263.668 90)">W<tspan x="49.5887" y="0">W</tspan><tspan x="99.1775" y="0">W</tspan><tspan x="148.766" y="0">W</tspan><tspan x="198.355" y="0">W</tspan><tspan x="247.944" y="0">W</tspan><tspan x="297.533" y="0">W</tspan><tspan x="347.121" y="0">W</tspan><tspan x="396.71" y="0">W</tspan><tspan x="446.299" y="0">W</tspan><tspan x="495.888" y="0">W</tspan><tspan x="545.476" y="0">W</tspan><tspan x="595.065" y="0">W</tspan><tspan x="644.654" y="0">W</tspan><tspan x="694.243" y="0">W</tspan><tspan x="743.832" y="0">W</tspan></text><path d="M543 222.5 543 250.5 542 250.5 542 222.5ZM546.5 249.167 542.5 257.167 538.5 249.167Z" fill="#1F4E79"/><path d="M292.879 166.885 441.645 166.885 441.645 195.685 292.879 195.685Z" fill="#DAE3F3" fill-rule="evenodd"/><path d="M491.234 166.885 540.822 166.885 540.822 195.685 491.234 195.685Z" fill="#DAE3F3" fill-rule="evenodd"/><path d="M540.822 166.885 590.411 166.885 590.411 195.685 540.822 195.685Z" fill="#DAE3F3" fill-rule="evenodd"/><path d="M640 166.885 689.589 166.885 689.589 195.685 640 195.685Z" fill="#DAE3F3" fill-rule="evenodd"/><path d="M689.589 166.885 739.177 166.885 739.177 195.685 689.589 195.685Z" fill="#DAE3F3" fill-rule="evenodd"/><path d="M292.879 166.219 292.879 195.685" stroke="#1F4E79" stroke-width="1.33333" stroke-linejoin="round" stroke-miterlimit="10" fill="none" fill-rule="evenodd"/><path d="M292.879 195.685 292.879 215.25" stroke="#1F4E79" stroke-width="1.33333" stroke-linejoin="round" stroke-miterlimit="10" fill="none" fill-rule="evenodd"/><path d="M441.645 166.219 441.645 195.685" stroke="#1F4E79" stroke-width="1.33333" stroke-linejoin="round" stroke-miterlimit="10" fill="none" fill-rule="evenodd"/><path d="M441.645 195.685 441.645 215.25" stroke="#1F4E79" stroke-width="1.33333" stroke-linejoin="round" stroke-miterlimit="10" fill="none" fill-rule="evenodd"/><path d="M491.234 166.219 491.234 196.352" stroke="#1F4E79" stroke-width="1.33333" stroke-linejoin="round" stroke-miterlimit="10" fill="none" fill-rule="evenodd"/><path d="M540.822 166.219 540.822 196.352" stroke="#1F4E79" stroke-width="1.33333" stroke-linejoin="round" stroke-miterlimit="10" fill="none" fill-rule="evenodd"/><path d="M590.411 166.219 590.411 196.352" stroke="#1F4E79" stroke-width="1.33333" stroke-linejoin="round" stroke-miterlimit="10" fill="none" fill-rule="evenodd"/><path d="M640 166.219 640 196.352" stroke="#1F4E79" stroke-width="1.33333" stroke-linejoin="round" stroke-miterlimit="10" fill="none" fill-rule="evenodd"/><path d="M689.589 166.219 689.589 196.352" stroke="#1F4E79" stroke-width="1.33333" stroke-linejoin="round" stroke-miterlimit="10" fill="none" fill-rule="evenodd"/><path d="M739.177 166.219 739.177 196.352" stroke="#1F4E79" stroke-width="1.33333" stroke-linejoin="round" stroke-miterlimit="10" fill="none" fill-rule="evenodd"/><path d="M788.766 166.219 788.766 196.352" stroke="#1F4E79" stroke-width="1.33333" stroke-linejoin="round" stroke-miterlimit="10" fill="none" fill-rule="evenodd"/><path d="M838.355 166.219 838.355 196.352" stroke="#1F4E79" stroke-width="1.33333" stroke-linejoin="round" stroke-miterlimit="10" fill="none" fill-rule="evenodd"/><path d="M887.944 166.219 887.944 196.352" stroke="#1F4E79" stroke-width="1.33333" stroke-linejoin="round" stroke-miterlimit="10" fill="none" fill-rule="evenodd"/><path d="M937.533 166.219 937.533 196.352" stroke="#1F4E79" stroke-width="1.33333" stroke-linejoin="round" stroke-miterlimit="10" fill="none" fill-rule="evenodd"/><path d="M987.121 166.219 987.121 196.352" stroke="#1F4E79" stroke-width="1.33333" stroke-linejoin="round" stroke-miterlimit="10" fill="none" fill-rule="evenodd"/><path d="M242.623 195.685 491.234 195.685" stroke="#1F4E79" stroke-width="1.33333" stroke-linejoin="round" stroke-miterlimit="10" fill="none" fill-rule="evenodd"/><path d="M491.234 195.685 590.411 195.685" stroke="#1F4E79" stroke-width="1.33333" stroke-linejoin="round" stroke-miterlimit="10" fill="none" fill-rule="evenodd"/><path d="M590.411 195.685 640 195.685" stroke="#1F4E79" stroke-width="1.33333" stroke-linejoin="round" stroke-miterlimit="10" fill="none" fill-rule="evenodd"/><path d="M640 195.685 739.177 195.685" stroke="#1F4E79" stroke-width="1.33333" stroke-linejoin="round" stroke-miterlimit="10" fill="none" fill-rule="evenodd"/><path d="M739.177 195.685 1037.38 195.685" stroke="#1F4E79" stroke-width="1.33333" stroke-linejoin="round" stroke-miterlimit="10" fill="none" fill-rule="evenodd"/><path d="M243.29 166.219 243.29 196.352" stroke="#1F4E79" stroke-width="1.33333" stroke-linejoin="round" stroke-miterlimit="10" fill="none" fill-rule="evenodd"/><path d="M1036.71 166.219 1036.71 196.352" stroke="#1F4E79" stroke-width="1.33333" stroke-linejoin="round" stroke-miterlimit="10" fill="none" fill-rule="evenodd"/><path d="M242.623 166.885 1037.38 166.885" stroke="#1F4E79" stroke-width="1.33333" stroke-linejoin="round" stroke-miterlimit="10" fill="none" fill-rule="evenodd"/><path d="M292.212 214.583 442.312 214.583" stroke="#1F4E79" stroke-width="1.33333" stroke-linejoin="round" stroke-miterlimit="10" fill="none" fill-rule="evenodd"/><text font-family="Consolas,Consolas_MSFontService,sans-serif" font-weight="400" font-size="16" transform="translate(263.668 187)">W<tspan x="99.1775" y="0">I</tspan><tspan x="198.355" y="0">W</tspan><tspan x="247.944" y="0">W</tspan><tspan x="297.533" y="0">W</tspan><tspan x="347.121" y="0">W</tspan><tspan x="396.71" y="0">W</tspan><tspan x="446.299" y="0">W</tspan><tspan x="495.888" y="0">W</tspan><tspan x="545.476" y="0">W</tspan><tspan x="595.065" y="0">W</tspan><tspan x="644.654" y="0">W</tspan><tspan x="694.243" y="0">W</tspan><tspan x="743.832" y="0">W</tspan><tspan font-size="12" x="100.261" y="22">a</tspan></text><path d="M690 222.5 690 250.5 689 250.5 689 222.5ZM693.5 249.167 689.5 257.167 685.5 249.167Z" fill="#1F4E79"/><path d="M491.234 273.028 590.411 273.028 590.411 301.828 491.234 301.828Z" fill="#DAE3F3" fill-rule="evenodd"/><path d="M640 273.028 739.177 273.028 739.177 301.828 640 301.828Z" fill="#DAE3F3" fill-rule="evenodd"/><path d="M788.766 273.028 838.355 273.028 838.355 301.828 788.766 301.828Z" fill="#DAE3F3" fill-rule="evenodd"/><path d="M937.533 273.028 987.121 273.028 987.121 301.828 937.533 301.828Z" fill="#DAE3F3" fill-rule="evenodd"/><path d="M292.879 272.361 292.879 301.828" stroke="#1F4E79" stroke-width="1.33333" stroke-linejoin="round" stroke-miterlimit="10" fill="none" fill-rule="evenodd"/><path d="M292.879 301.828 292.879 321.392" stroke="#1F4E79" stroke-width="1.33333" stroke-linejoin="round" stroke-miterlimit="10" fill="none" fill-rule="evenodd"/><path d="M441.645 272.361 441.645 301.828" stroke="#1F4E79" stroke-width="1.33333" stroke-linejoin="round" stroke-miterlimit="10" fill="none" fill-rule="evenodd"/><path d="M441.645 301.828 441.645 321.392" stroke="#1F4E79" stroke-width="1.33333" stroke-linejoin="round" stroke-miterlimit="10" fill="none" fill-rule="evenodd"/><path d="M491.234 272.361 491.234 301.828" stroke="#1F4E79" stroke-width="1.33333" stroke-linejoin="round" stroke-miterlimit="10" fill="none" fill-rule="evenodd"/><path d="M491.234 301.828 491.234 321.392" stroke="#1F4E79" stroke-width="1.33333" stroke-linejoin="round" stroke-miterlimit="10" fill="none" fill-rule="evenodd"/><path d="M590.411 272.361 590.411 301.828" stroke="#1F4E79" stroke-width="1.33333" stroke-linejoin="round" stroke-miterlimit="10" fill="none" fill-rule="evenodd"/><path d="M590.411 301.828 590.411 321.392" stroke="#1F4E79" stroke-width="1.33333" stroke-linejoin="round" stroke-miterlimit="10" fill="none" fill-rule="evenodd"/><path d="M640 272.361 640 301.828" stroke="#1F4E79" stroke-width="1.33333" stroke-linejoin="round" stroke-miterlimit="10" fill="none" fill-rule="evenodd"/><path d="M640 301.828 640 321.392" stroke="#1F4E79" stroke-width="1.33333" stroke-linejoin="round" stroke-miterlimit="10" fill="none" fill-rule="evenodd"/><path d="M739.177 272.361 739.177 301.828" stroke="#1F4E79" stroke-width="1.33333" stroke-linejoin="round" stroke-miterlimit="10" fill="none" fill-rule="evenodd"/><path d="M739.177 301.828 739.177 321.392" stroke="#1F4E79" stroke-width="1.33333" stroke-linejoin="round" stroke-miterlimit="10" fill="none" fill-rule="evenodd"/><path d="M788.766 272.361 788.766 302.495" stroke="#1F4E79" stroke-width="1.33333" stroke-linejoin="round" stroke-miterlimit="10" fill="none" fill-rule="evenodd"/><path d="M838.355 272.361 838.355 302.495" stroke="#1F4E79" stroke-width="1.33333" stroke-linejoin="round" stroke-miterlimit="10" fill="none" fill-rule="evenodd"/><path d="M887.944 272.361 887.944 302.495" stroke="#1F4E79" stroke-width="1.33333" stroke-linejoin="round" stroke-miterlimit="10" fill="none" fill-rule="evenodd"/><path d="M937.533 272.361 937.533 302.495" stroke="#1F4E79" stroke-width="1.33333" stroke-linejoin="round" stroke-miterlimit="10" fill="none" fill-rule="evenodd"/><path d="M987.121 272.361 987.121 302.495" stroke="#1F4E79" stroke-width="1.33333" stroke-linejoin="round" stroke-miterlimit="10" fill="none" fill-rule="evenodd"/><path d="M242.623 301.828 491.234 301.828" stroke="#1F4E79" stroke-width="1.33333" stroke-linejoin="round" stroke-miterlimit="10" fill="none" fill-rule="evenodd"/><path d="M491.234 301.828 590.411 301.828" stroke="#1F4E79" stroke-width="1.33333" stroke-linejoin="round" stroke-miterlimit="10" fill="none" fill-rule="evenodd"/><path d="M590.411 301.828 640 301.828" stroke="#1F4E79" stroke-width="1.33333" stroke-linejoin="round" stroke-miterlimit="10" fill="none" fill-rule="evenodd"/><path d="M640 301.828 739.177 301.828" stroke="#1F4E79" stroke-width="1.33333" stroke-linejoin="round" stroke-miterlimit="10" fill="none" fill-rule="evenodd"/><path d="M739.177 301.828 1037.38 301.828" stroke="#1F4E79" stroke-width="1.33333" stroke-linejoin="round" stroke-miterlimit="10" fill="none" fill-rule="evenodd"/><path d="M243.29 272.361 243.29 302.495" stroke="#1F4E79" stroke-width="1.33333" stroke-linejoin="round" stroke-miterlimit="10" fill="none" fill-rule="evenodd"/><path d="M1036.71 272.361 1036.71 302.495" stroke="#1F4E79" stroke-width="1.33333" stroke-linejoin="round" stroke-miterlimit="10" fill="none" fill-rule="evenodd"/><path d="M242.623 273.028 1037.38 273.028" stroke="#1F4E79" stroke-width="1.33333" stroke-linejoin="round" stroke-miterlimit="10" fill="none" fill-rule="evenodd"/><path d="M292.212 320.726 442.312 320.726" stroke="#1F4E79" stroke-width="1.33333" stroke-linejoin="round" stroke-miterlimit="10" fill="none" fill-rule="evenodd"/><path d="M490.567 320.726 591.078 320.726" stroke="#1F4E79" stroke-width="1.33333" stroke-linejoin="round" stroke-miterlimit="10" fill="none" fill-rule="evenodd"/><path d="M639.333 320.726 739.844 320.726" stroke="#1F4E79" stroke-width="1.33333" stroke-linejoin="round" stroke-miterlimit="10" fill="none" fill-rule="evenodd"/><text font-family="Consolas,Consolas_MSFontService,sans-serif" font-weight="400" font-size="16" transform="translate(263.668 293)">W<tspan x="99.1775" y="0">I</tspan><tspan x="198.355" y="0">W</tspan><tspan x="268.322" y="0">MW</tspan><tspan x="347.121" y="0">W</tspan><tspan x="417.088" y="0">NW</tspan><tspan x="495.888" y="0">W</tspan><tspan x="545.476" y="0">W</tspan><tspan x="595.065" y="0">W</tspan><tspan x="644.654" y="0">W</tspan><tspan x="694.243" y="0">W</tspan><tspan x="743.832" y="0">W</tspan><tspan font-size="12" x="100.261" y="22">a</tspan><tspan font-size="12" x="273.822" y="22">a</tspan><tspan font-size="12" x="422.588" y="22">a</tspan></text><path d="M170.5 85.0001C170.5 73.6782 179.678 64.5001 191 64.5001 202.322 64.5001 211.5 73.6782 211.5 85.0001 211.5 96.3219 202.322 105.5 191 105.5 179.678 105.5 170.5 96.3219 170.5 85.0001Z" stroke="#2F528F" stroke-miterlimit="8" fill="#DAE3F3" fill-rule="evenodd"/><text fill="#1F4E79" font-family="Calibri,Calibri_MSFontService,sans-serif" font-weight="400" font-size="24" transform="translate(184.417 92)">1</text><path d="M170.5 183C170.5 171.678 179.678 162.5 191 162.5 202.322 162.5 211.5 171.678 211.5 183 211.5 194.322 202.322 203.5 191 203.5 179.678 203.5 170.5 194.322 170.5 183Z" stroke="#2F528F" stroke-miterlimit="8" fill="#DAE3F3" fill-rule="evenodd"/><text fill="#1F4E79" font-family="Calibri,Calibri_MSFontService,sans-serif" font-weight="400" font-size="24" transform="translate(184.417 190)">2</text><path d="M170.5 287C170.5 275.678 179.678 266.5 191 266.5 202.322 266.5 211.5 275.678 211.5 287 211.5 298.322 202.322 307.5 191 307.5 179.678 307.5 170.5 298.322 170.5 287Z" stroke="#2F528F" stroke-miterlimit="8" fill="#DAE3F3" fill-rule="evenodd"/><text fill="#1F4E79" font-family="Calibri,Calibri_MSFontService,sans-serif" font-weight="400" font-size="24" transform="translate(184.417 294)">3</text><path d="M788.766 380.506 838.355 380.506 838.355 409.306 788.766 409.306Z" fill="#DAE3F3" fill-rule="evenodd"/><path d="M937.533 380.506 987.121 380.506 987.121 409.306 937.533 409.306Z" fill="#DAE3F3" fill-rule="evenodd"/><path d="M292.879 379.839 292.879 409.306" stroke="#1F4E79" stroke-width="1.33333" stroke-linejoin="round" stroke-miterlimit="10" fill="none" fill-rule="evenodd"/><path d="M292.879 409.306 292.879 428.87" stroke="#1F4E79" stroke-width="1.33333" stroke-linejoin="round" stroke-miterlimit="10" fill="none" fill-rule="evenodd"/><path d="M441.645 379.839 441.645 409.306" stroke="#1F4E79" stroke-width="1.33333" stroke-linejoin="round" stroke-miterlimit="10" fill="none" fill-rule="evenodd"/><path d="M441.645 409.306 441.645 428.87" stroke="#1F4E79" stroke-width="1.33333" stroke-linejoin="round" stroke-miterlimit="10" fill="none" fill-rule="evenodd"/><path d="M491.234 379.839 491.234 409.306" stroke="#1F4E79" stroke-width="1.33333" stroke-linejoin="round" stroke-miterlimit="10" fill="none" fill-rule="evenodd"/><path d="M491.234 409.306 491.234 428.87" stroke="#1F4E79" stroke-width="1.33333" stroke-linejoin="round" stroke-miterlimit="10" fill="none" fill-rule="evenodd"/><path d="M590.411 379.839 590.411 409.306" stroke="#1F4E79" stroke-width="1.33333" stroke-linejoin="round" stroke-miterlimit="10" fill="none" fill-rule="evenodd"/><path d="M590.411 409.306 590.411 428.87" stroke="#1F4E79" stroke-width="1.33333" stroke-linejoin="round" stroke-miterlimit="10" fill="none" fill-rule="evenodd"/><path d="M640 379.839 640 409.306" stroke="#1F4E79" stroke-width="1.33333" stroke-linejoin="round" stroke-miterlimit="10" fill="none" fill-rule="evenodd"/><path d="M640 409.306 640 428.87" stroke="#1F4E79" stroke-width="1.33333" stroke-linejoin="round" stroke-miterlimit="10" fill="none" fill-rule="evenodd"/><path d="M739.177 379.839 739.177 409.306" stroke="#1F4E79" stroke-width="1.33333" stroke-linejoin="round" stroke-miterlimit="10" fill="none" fill-rule="evenodd"/><path d="M739.177 409.306 739.177 428.87" stroke="#1F4E79" stroke-width="1.33333" stroke-linejoin="round" stroke-miterlimit="10" fill="none" fill-rule="evenodd"/><path d="M788.766 379.839 788.766 409.306" stroke="#1F4E79" stroke-width="1.33333" stroke-linejoin="round" stroke-miterlimit="10" fill="none" fill-rule="evenodd"/><path d="M788.766 409.306 788.766 428.87" stroke="#1F4E79" stroke-width="1.33333" stroke-linejoin="round" stroke-miterlimit="10" fill="none" fill-rule="evenodd"/><path d="M838.355 379.839 838.355 409.306" stroke="#1F4E79" stroke-width="1.33333" stroke-linejoin="round" stroke-miterlimit="10" fill="none" fill-rule="evenodd"/><path d="M838.355 409.306 838.355 428.87" stroke="#1F4E79" stroke-width="1.33333" stroke-linejoin="round" stroke-miterlimit="10" fill="none" fill-rule="evenodd"/><path d="M887.944 379.839 887.944 409.973" stroke="#1F4E79" stroke-width="1.33333" stroke-linejoin="round" stroke-miterlimit="10" fill="none" fill-rule="evenodd"/><path d="M937.533 379.839 937.533 409.306" stroke="#1F4E79" stroke-width="1.33333" stroke-linejoin="round" stroke-miterlimit="10" fill="none" fill-rule="evenodd"/><path d="M937.533 409.306 937.533 428.87" stroke="#1F4E79" stroke-width="1.33333" stroke-linejoin="round" stroke-miterlimit="10" fill="none" fill-rule="evenodd"/><path d="M987.121 379.839 987.121 409.306" stroke="#1F4E79" stroke-width="1.33333" stroke-linejoin="round" stroke-miterlimit="10" fill="none" fill-rule="evenodd"/><path d="M987.121 409.306 987.121 428.87" stroke="#1F4E79" stroke-width="1.33333" stroke-linejoin="round" stroke-miterlimit="10" fill="none" fill-rule="evenodd"/><path d="M242.623 409.306 491.234 409.306" stroke="#1F4E79" stroke-width="1.33333" stroke-linejoin="round" stroke-miterlimit="10" fill="none" fill-rule="evenodd"/><path d="M491.234 409.306 590.411 409.306" stroke="#1F4E79" stroke-width="1.33333" stroke-linejoin="round" stroke-miterlimit="10" fill="none" fill-rule="evenodd"/><path d="M590.411 409.306 640 409.306" stroke="#1F4E79" stroke-width="1.33333" stroke-linejoin="round" stroke-miterlimit="10" fill="none" fill-rule="evenodd"/><path d="M640 409.306 739.177 409.306" stroke="#1F4E79" stroke-width="1.33333" stroke-linejoin="round" stroke-miterlimit="10" fill="none" fill-rule="evenodd"/><path d="M739.177 409.306 788.766 409.306" stroke="#1F4E79" stroke-width="1.33333" stroke-linejoin="round" stroke-miterlimit="10" fill="none" fill-rule="evenodd"/><path d="M788.766 409.306 838.355 409.306" stroke="#1F4E79" stroke-width="1.33333" stroke-linejoin="round" stroke-miterlimit="10" fill="none" fill-rule="evenodd"/><path d="M838.355 409.306 937.533 409.306" stroke="#1F4E79" stroke-width="1.33333" stroke-linejoin="round" stroke-miterlimit="10" fill="none" fill-rule="evenodd"/><path d="M937.533 409.306 987.121 409.306" stroke="#1F4E79" stroke-width="1.33333" stroke-linejoin="round" stroke-miterlimit="10" fill="none" fill-rule="evenodd"/><path d="M987.121 409.306 1037.38 409.306" stroke="#1F4E79" stroke-width="1.33333" stroke-linejoin="round" stroke-miterlimit="10" fill="none" fill-rule="evenodd"/><path d="M243.29 379.839 243.29 409.973" stroke="#1F4E79" stroke-width="1.33333" stroke-linejoin="round" stroke-miterlimit="10" fill="none" fill-rule="evenodd"/><path d="M1036.71 379.839 1036.71 409.973" stroke="#1F4E79" stroke-width="1.33333" stroke-linejoin="round" stroke-miterlimit="10" fill="none" fill-rule="evenodd"/><path d="M242.623 380.506 1037.38 380.506" stroke="#1F4E79" stroke-width="1.33333" stroke-linejoin="round" stroke-miterlimit="10" fill="none" fill-rule="evenodd"/><path d="M292.212 428.204 442.312 428.204" stroke="#1F4E79" stroke-width="1.33333" stroke-linejoin="round" stroke-miterlimit="10" fill="none" fill-rule="evenodd"/><path d="M490.567 428.204 591.078 428.204" stroke="#1F4E79" stroke-width="1.33333" stroke-linejoin="round" stroke-miterlimit="10" fill="none" fill-rule="evenodd"/><path d="M639.333 428.204 739.844 428.204" stroke="#1F4E79" stroke-width="1.33333" stroke-linejoin="round" stroke-miterlimit="10" fill="none" fill-rule="evenodd"/><path d="M788.1 428.204 839.022 428.204" stroke="#1F4E79" stroke-width="1.33333" stroke-linejoin="round" stroke-miterlimit="10" fill="none" fill-rule="evenodd"/><path d="M936.866 428.204 987.788 428.204" stroke="#1F4E79" stroke-width="1.33333" stroke-linejoin="round" stroke-miterlimit="10" fill="none" fill-rule="evenodd"/><path d="M243.79 381.006 293.79 410.006" stroke="#1F4E79" stroke-linejoin="round" stroke-miterlimit="10" fill="none" fill-rule="evenodd"/><path d="M441.79 381.006 491.79 410.006" stroke="#1F4E79" stroke-linejoin="round" stroke-miterlimit="10" fill="none" fill-rule="evenodd"/><path d="M590.79 381.006 640.79 410.006" stroke="#1F4E79" stroke-linejoin="round" stroke-miterlimit="10" fill="none" fill-rule="evenodd"/><path d="M739.79 381.006 788.79 410.006" stroke="#1F4E79" stroke-linejoin="round" stroke-miterlimit="10" fill="none" fill-rule="evenodd"/><path d="M838.79 381.006 888.79 410.006" stroke="#1F4E79" stroke-linejoin="round" stroke-miterlimit="10" fill="none" fill-rule="evenodd"/><path d="M888.79 381.006 937.79 410.006" stroke="#1F4E79" stroke-linejoin="round" stroke-miterlimit="10" fill="none" fill-rule="evenodd"/><path d="M987.79 381.006 1036.79 410.006" stroke="#1F4E79" stroke-linejoin="round" stroke-miterlimit="10" fill="none" fill-rule="evenodd"/><text font-family="Consolas,Consolas_MSFontService,sans-serif" font-weight="400" font-size="16" transform="translate(263.668 400)">W<tspan x="99.1775" y="0">I</tspan><tspan x="198.355" y="0">W</tspan><tspan x="268.322" y="0">MW</tspan><tspan x="347.121" y="0">W</tspan><tspan x="417.088" y="0">NW</tspan><tspan x="495.888" y="0">W</tspan><tspan x="545.476" y="0">W</tspan><tspan x="595.065" y="0">W</tspan><tspan x="644.654" y="0">W</tspan><tspan x="694.243" y="0">W</tspan><tspan x="743.832" y="0">W</tspan><tspan font-size="12" x="100.261" y="23">a</tspan><tspan font-size="12" x="273.822" y="23">a</tspan><tspan font-size="12" x="422.588" y="23">a</tspan><tspan font-size="12" x="546.56" y="23">a</tspan><tspan font-size="12" x="695.326" y="23">a</tspan></text><path d="M170.5 393C170.5 381.678 179.678 372.5 191 372.5 202.322 372.5 211.5 381.678 211.5 393 211.5 404.322 202.322 413.5 191 413.5 179.678 413.5 170.5 404.322 170.5 393Z" stroke="#2F528F" stroke-miterlimit="8" fill="#DAE3F3" fill-rule="evenodd"/><text fill="#1F4E79" font-family="Calibri,Calibri_MSFontService,sans-serif" font-weight="400" font-size="24" transform="translate(184.417 400)">4</text><path d="M813 325.5 813 353.5 812 353.5 812 325.5ZM816.5 352.167 812.5 360.167 808.5 352.167Z" fill="#1F4E79"/><path d="M962 322.5 962 350.5 961 350.5 961 322.5ZM965.5 349.167 961.5 357.167 957.5 349.167Z" fill="#1F4E79"/><path d="M988.5 462.5C988.5 466.366 974.546 469.5 957.334 469.5L671.666 469.5C654.454 469.5 640.5 472.635 640.5 476.501 640.5 472.635 626.547 469.5 609.334 469.5L323.666 469.5C306.454 469.5 292.5 466.366 292.5 462.5" stroke="#1F4E79" stroke-miterlimit="8" fill="none" fill-rule="evenodd"/><path d="M603 493.263 603 526.33" stroke="#1F4E79" stroke-width="1.33333" stroke-linejoin="round" stroke-miterlimit="10" fill="none" fill-rule="evenodd"/><path d="M677 493.263 677 526.33" stroke="#1F4E79" stroke-width="1.33333" stroke-linejoin="round" stroke-miterlimit="10" fill="none" fill-rule="evenodd"/><path d="M602.333 493.929 677.667 493.929" stroke="#1F4E79" stroke-width="1.33333" stroke-linejoin="round" stroke-miterlimit="10" fill="none" fill-rule="evenodd"/><path d="M602.333 525.664 677.667 525.664" stroke="#1F4E79" stroke-width="1.33333" stroke-linejoin="round" stroke-miterlimit="10" fill="none" fill-rule="evenodd"/><text font-family="Cambria Math,Cambria Math_MSFontService,sans-serif" font-weight="400" font-size="16" transform="translate(627.023 515)">𝜇<tspan font-size="12" x="8.83331" y="3">𝑎</tspan></text></g></svg>