<svg width="894" height="65" xmlns="http://www.w3.org/2000/svg" xmlns:xlink="http://www.w3.org/1999/xlink" overflow="hidden"><defs><clipPath id="clip0"><path d="M144 87 1038 87 1038 152 144 152Z" fill-rule="evenodd" clip-rule="evenodd"/></clipPath></defs><g clip-path="url(#clip0)" transform="translate(-144 -87)"><text fill="#669900" font-family="Consolas,Consolas_MSFontService,sans-serif" font-weight="400" font-size="14" transform="translate(154.489 105)">'<tspan x="7.66667" y="0">excuse</tspan><tspan x="53.6667" y="0">'</tspan><tspan fill="#A6A6A6" x="61.3333" y="0">: {</tspan>'NN' <tspan fill="#A6A6A6" x="122.667" y="0">: </tspan><tspan x="138" y="0">[</tspan><tspan x="145.667" y="0">-</tspan><tspan x="153.333" y="0">0.1,</tspan><tspan x="191.667" y="0">0.1,</tspan><tspan x="230" y="0">1.0], 'VB': [0.0, 0.0, 1.0], 'None':</tspan><tspan x="513.667" y="0">[</tspan><tspan x="521.333" y="0">-</tspan>0.05, 0.05, 1.0] <tspan fill="#A6A6A6" x="659.333" y="0">}</tspan><tspan fill="#A6A6A6" x="15.3333" y="17">[...]</tspan><tspan x="0" y="34">'</tspan><tspan x="7.66667" y="34">incompetent</tspan><tspan x="92" y="34">'</tspan><tspan fill="#A6A6A6" x="99.6667" y="34">: </tspan><tspan fill="#A6A6A6" x="115" y="34">{</tspan><tspan x="122.667" y="34">'JJ' </tspan><tspan fill="#A6A6A6" x="161" y="34">: </tspan><tspan x="176.333" y="34">[</tspan><tspan x="184" y="34">-</tspan><tspan x="191.667" y="34">0.3997</tspan>, <tspan x="253" y="34">0.4335, </tspan><tspan x="314.333" y="34">1.0], </tspan><tspan x="360.333" y="34">'NN': [</tspan>-<tspan x="421.667" y="34">0.</tspan><tspan x="437" y="34">3</tspan><tspan x="444.667" y="34">, 0.3, </tspan><tspan x="498.333" y="34">1.0], 'None': [</tspan>-0.35, 0.3667, 1.0] <tspan fill="#A6A6A6" x="766.667" y="34">}</tspan></text></g></svg>